<?xml version="1.0" encoding="UTF-8" standalone="no"?>
<!DOCTYPE svg PUBLIC "-//W3C//DTD SVG 1.1//EN"
 "http://www.w3.org/Graphics/SVG/1.1/DTD/svg11.dtd">
<!-- Generated by graphviz version 2.40.1 (20161225.0304)
 -->
<!-- Title: G Pages: 1 -->
<svg width="1805pt" height="719pt"
 viewBox="0.00 0.00 1805.20 719.47" xmlns="http://www.w3.org/2000/svg" xmlns:xlink="http://www.w3.org/1999/xlink">
<g id="graph0" class="graph" transform="scale(1 1) rotate(0) translate(21.6 697.8713)">
<title>G</title>
<polygon fill="#111111" stroke="transparent" points="-21.6,21.6 -21.6,-697.8713 1783.6,-697.8713 1783.6,21.6 -21.6,21.6"/>
<!-- components/App/Routes/AppRoute.tsx -->
<g id="node1" class="node">
<title>components/App/Routes/AppRoute.tsx</title>
<path fill="none" stroke="#cfffac" d="M1337.8333,-676.2713C1337.8333,-676.2713 1095.1667,-676.2713 1095.1667,-676.2713 1091.3333,-676.2713 1087.5,-672.4379 1087.5,-668.6046 1087.5,-668.6046 1087.5,-660.9379 1087.5,-660.9379 1087.5,-657.1046 1091.3333,-653.2713 1095.1667,-653.2713 1095.1667,-653.2713 1337.8333,-653.2713 1337.8333,-653.2713 1341.6667,-653.2713 1345.5,-657.1046 1345.5,-660.9379 1345.5,-660.9379 1345.5,-668.6046 1345.5,-668.6046 1345.5,-672.4379 1341.6667,-676.2713 1337.8333,-676.2713"/>
<text text-anchor="middle" x="1216.5" y="-661.0713" font-family="Arial" font-size="14.00" fill="#cfffac">components/App/Routes/AppRoute.tsx</text>
</g>
<!-- components/App/Routes/AuthRoute.tsx -->
<g id="node2" class="node">
<title>components/App/Routes/AuthRoute.tsx</title>
<path fill="none" stroke="#c6c5fe" d="M904.8333,-533.2713C904.8333,-533.2713 658.1667,-533.2713 658.1667,-533.2713 654.3333,-533.2713 650.5,-529.4379 650.5,-525.6046 650.5,-525.6046 650.5,-517.9379 650.5,-517.9379 650.5,-514.1046 654.3333,-510.2713 658.1667,-510.2713 658.1667,-510.2713 904.8333,-510.2713 904.8333,-510.2713 908.6667,-510.2713 912.5,-514.1046 912.5,-517.9379 912.5,-517.9379 912.5,-525.6046 912.5,-525.6046 912.5,-529.4379 908.6667,-533.2713 904.8333,-533.2713"/>
<text text-anchor="middle" x="781.5" y="-518.0713" font-family="Arial" font-size="14.00" fill="#c6c5fe">components/App/Routes/AuthRoute.tsx</text>
</g>
<!-- components/App/Routes/AuthRoute.tsx&#45;&gt;components/App/Routes/AppRoute.tsx -->
<g id="edge1" class="edge">
<title>components/App/Routes/AuthRoute.tsx&#45;&gt;components/App/Routes/AppRoute.tsx</title>
<path fill="none" stroke="#757575" d="M813.236,-533.2888C845.4219,-545.9969 895.5512,-568.6993 932,-598.7713 952.0252,-615.293 945.137,-632.4725 968,-644.7713 1000.8378,-662.4357 1039.7166,-670.4761 1076.8515,-673.3694"/>
<polygon fill="#757575" stroke="#757575" points="1077.0651,-676.8909 1087.2727,-674.0527 1077.5232,-669.9059 1077.0651,-676.8909"/>
</g>
<!-- components/App/Routes/index.tsx -->
<g id="node3" class="node">
<title>components/App/Routes/index.tsx</title>
<path fill="none" stroke="#c6c5fe" d="M566.8333,-461.2713C566.8333,-461.2713 353.1667,-461.2713 353.1667,-461.2713 349.3333,-461.2713 345.5,-457.4379 345.5,-453.6046 345.5,-453.6046 345.5,-445.9379 345.5,-445.9379 345.5,-442.1046 349.3333,-438.2713 353.1667,-438.2713 353.1667,-438.2713 566.8333,-438.2713 566.8333,-438.2713 570.6667,-438.2713 574.5,-442.1046 574.5,-445.9379 574.5,-445.9379 574.5,-453.6046 574.5,-453.6046 574.5,-457.4379 570.6667,-461.2713 566.8333,-461.2713"/>
<text text-anchor="middle" x="460" y="-446.0713" font-family="Arial" font-size="14.00" fill="#c6c5fe">components/App/Routes/index.tsx</text>
</g>
<!-- components/App/Routes/index.tsx&#45;&gt;components/App/Routes/AppRoute.tsx -->
<g id="edge2" class="edge">
<title>components/App/Routes/index.tsx&#45;&gt;components/App/Routes/AppRoute.tsx</title>
<path fill="none" stroke="#757575" d="M478.3561,-461.3903C509.0158,-480.4174 573.0078,-518.5248 631,-542.7713 775.3769,-603.1351 814.2433,-615.6617 968,-644.7713 1003.179,-651.4314 1041.5703,-655.8756 1077.4247,-658.8406"/>
<polygon fill="#757575" stroke="#757575" points="1077.2196,-662.3352 1087.4654,-659.6382 1077.774,-655.3572 1077.2196,-662.3352"/>
</g>
<!-- components/App/Routes/index.tsx&#45;&gt;components/App/Routes/AuthRoute.tsx -->
<g id="edge3" class="edge">
<title>components/App/Routes/index.tsx&#45;&gt;components/App/Routes/AuthRoute.tsx</title>
<path fill="none" stroke="#757575" d="M511.6545,-461.3393C568.4861,-474.0667 659.7634,-494.5083 720.1814,-508.0389"/>
<polygon fill="#757575" stroke="#757575" points="719.4505,-511.4619 729.9737,-510.2319 720.9803,-504.6311 719.4505,-511.4619"/>
</g>
<!-- components/App/Routes/pageRoutes/index.ts -->
<g id="node4" class="node">
<title>components/App/Routes/pageRoutes/index.ts</title>
<path fill="none" stroke="#c6c5fe" d="M924.3333,-389.2713C924.3333,-389.2713 638.6667,-389.2713 638.6667,-389.2713 634.8333,-389.2713 631,-385.4379 631,-381.6046 631,-381.6046 631,-373.9379 631,-373.9379 631,-370.1046 634.8333,-366.2713 638.6667,-366.2713 638.6667,-366.2713 924.3333,-366.2713 924.3333,-366.2713 928.1667,-366.2713 932,-370.1046 932,-373.9379 932,-373.9379 932,-381.6046 932,-381.6046 932,-385.4379 928.1667,-389.2713 924.3333,-389.2713"/>
<text text-anchor="middle" x="781.5" y="-374.0713" font-family="Arial" font-size="14.00" fill="#c6c5fe">components/App/Routes/pageRoutes/index.ts</text>
</g>
<!-- components/App/Routes/index.tsx&#45;&gt;components/App/Routes/pageRoutes/index.ts -->
<g id="edge4" class="edge">
<title>components/App/Routes/index.tsx&#45;&gt;components/App/Routes/pageRoutes/index.ts</title>
<path fill="none" stroke="#757575" d="M543.8063,-438.2374C560.8136,-435.4754 578.5314,-432.2922 595,-428.7713 643.0617,-418.4958 697.1533,-403.2915 734.6558,-392.1575"/>
<polygon fill="#757575" stroke="#757575" points="735.7169,-395.4934 744.2961,-389.2766 733.7126,-388.7865 735.7169,-395.4934"/>
</g>
<!-- components/App/Routes/routeConfig.ts -->
<g id="node5" class="node">
<title>components/App/Routes/routeConfig.ts</title>
<path fill="none" stroke="#cfffac" d="M1754.3333,-348.2713C1754.3333,-348.2713 1508.6667,-348.2713 1508.6667,-348.2713 1504.8333,-348.2713 1501,-344.4379 1501,-340.6046 1501,-340.6046 1501,-332.9379 1501,-332.9379 1501,-329.1046 1504.8333,-325.2713 1508.6667,-325.2713 1508.6667,-325.2713 1754.3333,-325.2713 1754.3333,-325.2713 1758.1667,-325.2713 1762,-329.1046 1762,-332.9379 1762,-332.9379 1762,-340.6046 1762,-340.6046 1762,-344.4379 1758.1667,-348.2713 1754.3333,-348.2713"/>
<text text-anchor="middle" x="1631.5" y="-333.0713" font-family="Arial" font-size="14.00" fill="#cfffac">components/App/Routes/routeConfig.ts</text>
</g>
<!-- components/App/Routes/index.tsx&#45;&gt;components/App/Routes/routeConfig.ts -->
<g id="edge5" class="edge">
<title>components/App/Routes/index.tsx&#45;&gt;components/App/Routes/routeConfig.ts</title>
<path fill="none" stroke="#757575" d="M574.7894,-440.0961C581.9537,-437.0477 588.7744,-433.3174 595,-428.7713 623.8934,-407.6722 608.9375,-384.9359 631,-356.7713 752.3186,-201.8984 783.3788,-137.733 968,-69.7713 1175.2902,6.5352 1271.8553,37.4063 1465,-69.7713 1562.644,-123.9547 1610.5116,-261.8482 1625.8374,-315.2184"/>
<polygon fill="#757575" stroke="#757575" points="1622.5023,-316.2893 1628.5473,-324.9904 1629.2477,-314.4187 1622.5023,-316.2893"/>
</g>
<!-- components/App/Routes/pageRoutes/AboutPageRoute.tsx -->
<g id="node6" class="node">
<title>components/App/Routes/pageRoutes/AboutPageRoute.tsx</title>
<path fill="none" stroke="#c6c5fe" d="M1399.8333,-635.2713C1399.8333,-635.2713 1033.1667,-635.2713 1033.1667,-635.2713 1029.3333,-635.2713 1025.5,-631.4379 1025.5,-627.6046 1025.5,-627.6046 1025.5,-619.9379 1025.5,-619.9379 1025.5,-616.1046 1029.3333,-612.2713 1033.1667,-612.2713 1033.1667,-612.2713 1399.8333,-612.2713 1399.8333,-612.2713 1403.6667,-612.2713 1407.5,-616.1046 1407.5,-619.9379 1407.5,-619.9379 1407.5,-627.6046 1407.5,-627.6046 1407.5,-631.4379 1403.6667,-635.2713 1399.8333,-635.2713"/>
<text text-anchor="middle" x="1216.5" y="-620.0713" font-family="Arial" font-size="14.00" fill="#c6c5fe">components/App/Routes/pageRoutes/AboutPageRoute.tsx</text>
</g>
<!-- components/App/Routes/pageRoutes/index.ts&#45;&gt;components/App/Routes/pageRoutes/AboutPageRoute.tsx -->
<g id="edge20" class="edge">
<title>components/App/Routes/pageRoutes/index.ts&#45;&gt;components/App/Routes/pageRoutes/AboutPageRoute.tsx</title>
<path fill="none" stroke="#757575" d="M801.7828,-389.4094C833.8272,-408.7751 896.1937,-450.5911 932,-501.7713 959.5584,-541.1622 929.9016,-574.452 968,-603.7713 1019.5847,-643.4691 1096.321,-643.4274 1150.8556,-636.6368"/>
<polygon fill="#757575" stroke="#757575" points="1151.3272,-640.1049 1160.7689,-635.2983 1150.3905,-633.1679 1151.3272,-640.1049"/>
</g>
<!-- components/App/Routes/pageRoutes/AdminArticleCreatePageRoute.tsx -->
<g id="node7" class="node">
<title>components/App/Routes/pageRoutes/AdminArticleCreatePageRoute.tsx</title>
<path fill="none" stroke="#c6c5fe" d="M1441.8333,-594.2713C1441.8333,-594.2713 991.1667,-594.2713 991.1667,-594.2713 987.3333,-594.2713 983.5,-590.4379 983.5,-586.6046 983.5,-586.6046 983.5,-578.9379 983.5,-578.9379 983.5,-575.1046 987.3333,-571.2713 991.1667,-571.2713 991.1667,-571.2713 1441.8333,-571.2713 1441.8333,-571.2713 1445.6667,-571.2713 1449.5,-575.1046 1449.5,-578.9379 1449.5,-578.9379 1449.5,-586.6046 1449.5,-586.6046 1449.5,-590.4379 1445.6667,-594.2713 1441.8333,-594.2713"/>
<text text-anchor="middle" x="1216.5" y="-579.0713" font-family="Arial" font-size="14.00" fill="#c6c5fe">components/App/Routes/pageRoutes/AdminArticleCreatePageRoute.tsx</text>
</g>
<!-- components/App/Routes/pageRoutes/index.ts&#45;&gt;components/App/Routes/pageRoutes/AdminArticleCreatePageRoute.tsx -->
<g id="edge21" class="edge">
<title>components/App/Routes/pageRoutes/index.ts&#45;&gt;components/App/Routes/pageRoutes/AdminArticleCreatePageRoute.tsx</title>
<path fill="none" stroke="#757575" d="M799.44,-389.4531C829.5177,-409.6682 890.8586,-453.6534 932,-501.7713 952.4578,-525.6981 941.311,-546.0767 968,-562.7713 1014.6878,-591.9755 1076.3511,-597.0906 1126.5712,-594.8476"/>
<polygon fill="#757575" stroke="#757575" points="1126.9871,-598.33 1136.7792,-594.2847 1126.6016,-591.3407 1126.9871,-598.33"/>
</g>
<!-- components/App/Routes/pageRoutes/AdminArticleEditorPageRoute.tsx -->
<g id="node8" class="node">
<title>components/App/Routes/pageRoutes/AdminArticleEditorPageRoute.tsx</title>
<path fill="none" stroke="#c6c5fe" d="M1438.8333,-553.2713C1438.8333,-553.2713 994.1667,-553.2713 994.1667,-553.2713 990.3333,-553.2713 986.5,-549.4379 986.5,-545.6046 986.5,-545.6046 986.5,-537.9379 986.5,-537.9379 986.5,-534.1046 990.3333,-530.2713 994.1667,-530.2713 994.1667,-530.2713 1438.8333,-530.2713 1438.8333,-530.2713 1442.6667,-530.2713 1446.5,-534.1046 1446.5,-537.9379 1446.5,-537.9379 1446.5,-545.6046 1446.5,-545.6046 1446.5,-549.4379 1442.6667,-553.2713 1438.8333,-553.2713"/>
<text text-anchor="middle" x="1216.5" y="-538.0713" font-family="Arial" font-size="14.00" fill="#c6c5fe">components/App/Routes/pageRoutes/AdminArticleEditorPageRoute.tsx</text>
</g>
<!-- components/App/Routes/pageRoutes/index.ts&#45;&gt;components/App/Routes/pageRoutes/AdminArticleEditorPageRoute.tsx -->
<g id="edge22" class="edge">
<title>components/App/Routes/pageRoutes/index.ts&#45;&gt;components/App/Routes/pageRoutes/AdminArticleEditorPageRoute.tsx</title>
<path fill="none" stroke="#757575" d="M794.5261,-389.4423C830.0005,-420.9559 928.3192,-506.4303 968,-521.7713 973.1724,-523.7709 978.4495,-525.6206 983.8079,-527.3301"/>
<polygon fill="#757575" stroke="#757575" points="982.9513,-530.7274 993.5357,-530.2583 984.969,-524.0244 982.9513,-530.7274"/>
</g>
<!-- components/App/Routes/pageRoutes/AdminArticleTagEditorPageRoute.tsx -->
<g id="node9" class="node">
<title>components/App/Routes/pageRoutes/AdminArticleTagEditorPageRoute.tsx</title>
<path fill="none" stroke="#c6c5fe" d="M1450.8333,-512.2713C1450.8333,-512.2713 982.1667,-512.2713 982.1667,-512.2713 978.3333,-512.2713 974.5,-508.4379 974.5,-504.6046 974.5,-504.6046 974.5,-496.9379 974.5,-496.9379 974.5,-493.1046 978.3333,-489.2713 982.1667,-489.2713 982.1667,-489.2713 1450.8333,-489.2713 1450.8333,-489.2713 1454.6667,-489.2713 1458.5,-493.1046 1458.5,-496.9379 1458.5,-496.9379 1458.5,-504.6046 1458.5,-504.6046 1458.5,-508.4379 1454.6667,-512.2713 1450.8333,-512.2713"/>
<text text-anchor="middle" x="1216.5" y="-497.0713" font-family="Arial" font-size="14.00" fill="#c6c5fe">components/App/Routes/pageRoutes/AdminArticleTagEditorPageRoute.tsx</text>
</g>
<!-- components/App/Routes/pageRoutes/index.ts&#45;&gt;components/App/Routes/pageRoutes/AdminArticleTagEditorPageRoute.tsx -->
<g id="edge23" class="edge">
<title>components/App/Routes/pageRoutes/index.ts&#45;&gt;components/App/Routes/pageRoutes/AdminArticleTagEditorPageRoute.tsx</title>
<path fill="none" stroke="#757575" d="M797.4338,-389.5328C828.4295,-411.6923 899.7971,-459.241 968,-479.7713 977.1541,-482.5268 986.5777,-484.9632 996.1563,-487.1151"/>
<polygon fill="#757575" stroke="#757575" points="995.6791,-490.592 1006.1894,-489.256 997.14,-483.7461 995.6791,-490.592"/>
</g>
<!-- components/App/Routes/pageRoutes/AdminArticlesPageRoute.tsx -->
<g id="node10" class="node">
<title>components/App/Routes/pageRoutes/AdminArticlesPageRoute.tsx</title>
<path fill="none" stroke="#c6c5fe" d="M1424.3333,-471.2713C1424.3333,-471.2713 1008.6667,-471.2713 1008.6667,-471.2713 1004.8333,-471.2713 1001,-467.4379 1001,-463.6046 1001,-463.6046 1001,-455.9379 1001,-455.9379 1001,-452.1046 1004.8333,-448.2713 1008.6667,-448.2713 1008.6667,-448.2713 1424.3333,-448.2713 1424.3333,-448.2713 1428.1667,-448.2713 1432,-452.1046 1432,-455.9379 1432,-455.9379 1432,-463.6046 1432,-463.6046 1432,-467.4379 1428.1667,-471.2713 1424.3333,-471.2713"/>
<text text-anchor="middle" x="1216.5" y="-456.0713" font-family="Arial" font-size="14.00" fill="#c6c5fe">components/App/Routes/pageRoutes/AdminArticlesPageRoute.tsx</text>
</g>
<!-- components/App/Routes/pageRoutes/index.ts&#45;&gt;components/App/Routes/pageRoutes/AdminArticlesPageRoute.tsx -->
<g id="edge24" class="edge">
<title>components/App/Routes/pageRoutes/index.ts&#45;&gt;components/App/Routes/pageRoutes/AdminArticlesPageRoute.tsx</title>
<path fill="none" stroke="#757575" d="M809.6998,-389.2768C845.7518,-403.4508 910.4093,-427.0845 968,-438.7713 983.5488,-441.9265 999.7378,-444.6088 1016.0654,-446.8888"/>
<polygon fill="#757575" stroke="#757575" points="1015.8678,-450.3936 1026.245,-448.257 1016.8004,-443.456 1015.8678,-450.3936"/>
</g>
<!-- components/App/Routes/pageRoutes/AdminHomePageRoute.tsx -->
<g id="node11" class="node">
<title>components/App/Routes/pageRoutes/AdminHomePageRoute.tsx</title>
<path fill="none" stroke="#c6c5fe" d="M1419.8333,-430.2713C1419.8333,-430.2713 1013.1667,-430.2713 1013.1667,-430.2713 1009.3333,-430.2713 1005.5,-426.4379 1005.5,-422.6046 1005.5,-422.6046 1005.5,-414.9379 1005.5,-414.9379 1005.5,-411.1046 1009.3333,-407.2713 1013.1667,-407.2713 1013.1667,-407.2713 1419.8333,-407.2713 1419.8333,-407.2713 1423.6667,-407.2713 1427.5,-411.1046 1427.5,-414.9379 1427.5,-414.9379 1427.5,-422.6046 1427.5,-422.6046 1427.5,-426.4379 1423.6667,-430.2713 1419.8333,-430.2713"/>
<text text-anchor="middle" x="1216.5" y="-415.0713" font-family="Arial" font-size="14.00" fill="#c6c5fe">components/App/Routes/pageRoutes/AdminHomePageRoute.tsx</text>
</g>
<!-- components/App/Routes/pageRoutes/index.ts&#45;&gt;components/App/Routes/pageRoutes/AdminHomePageRoute.tsx -->
<g id="edge25" class="edge">
<title>components/App/Routes/pageRoutes/index.ts&#45;&gt;components/App/Routes/pageRoutes/AdminHomePageRoute.tsx</title>
<path fill="none" stroke="#757575" d="M885.0381,-389.2939C912.0319,-392.1831 941.0951,-395.1921 968,-397.7713 998.8201,-400.7257 1031.8122,-403.6682 1063.358,-406.3749"/>
<polygon fill="#757575" stroke="#757575" points="1063.283,-409.8811 1073.5447,-407.2451 1063.8789,-402.9065 1063.283,-409.8811"/>
</g>
<!-- components/App/Routes/pageRoutes/ArticleListPageRoute.tsx -->
<g id="node12" class="node">
<title>components/App/Routes/pageRoutes/ArticleListPageRoute.tsx</title>
<path fill="none" stroke="#c6c5fe" d="M1411.8333,-389.2713C1411.8333,-389.2713 1021.1667,-389.2713 1021.1667,-389.2713 1017.3333,-389.2713 1013.5,-385.4379 1013.5,-381.6046 1013.5,-381.6046 1013.5,-373.9379 1013.5,-373.9379 1013.5,-370.1046 1017.3333,-366.2713 1021.1667,-366.2713 1021.1667,-366.2713 1411.8333,-366.2713 1411.8333,-366.2713 1415.6667,-366.2713 1419.5,-370.1046 1419.5,-373.9379 1419.5,-373.9379 1419.5,-381.6046 1419.5,-381.6046 1419.5,-385.4379 1415.6667,-389.2713 1411.8333,-389.2713"/>
<text text-anchor="middle" x="1216.5" y="-374.0713" font-family="Arial" font-size="14.00" fill="#c6c5fe">components/App/Routes/pageRoutes/ArticleListPageRoute.tsx</text>
</g>
<!-- components/App/Routes/pageRoutes/index.ts&#45;&gt;components/App/Routes/pageRoutes/ArticleListPageRoute.tsx -->
<g id="edge26" class="edge">
<title>components/App/Routes/pageRoutes/index.ts&#45;&gt;components/App/Routes/pageRoutes/ArticleListPageRoute.tsx</title>
<path fill="none" stroke="#757575" d="M932.1162,-377.7713C955.0994,-377.7713 979.1865,-377.7713 1003.2052,-377.7713"/>
<polygon fill="#757575" stroke="#757575" points="1003.4913,-381.2714 1013.4913,-377.7713 1003.4912,-374.2714 1003.4913,-381.2714"/>
</g>
<!-- components/App/Routes/pageRoutes/ArticlePageRoute.tsx -->
<g id="node13" class="node">
<title>components/App/Routes/pageRoutes/ArticlePageRoute.tsx</title>
<path fill="none" stroke="#c6c5fe" d="M1400.8333,-348.2713C1400.8333,-348.2713 1032.1667,-348.2713 1032.1667,-348.2713 1028.3333,-348.2713 1024.5,-344.4379 1024.5,-340.6046 1024.5,-340.6046 1024.5,-332.9379 1024.5,-332.9379 1024.5,-329.1046 1028.3333,-325.2713 1032.1667,-325.2713 1032.1667,-325.2713 1400.8333,-325.2713 1400.8333,-325.2713 1404.6667,-325.2713 1408.5,-329.1046 1408.5,-332.9379 1408.5,-332.9379 1408.5,-340.6046 1408.5,-340.6046 1408.5,-344.4379 1404.6667,-348.2713 1400.8333,-348.2713"/>
<text text-anchor="middle" x="1216.5" y="-333.0713" font-family="Arial" font-size="14.00" fill="#c6c5fe">components/App/Routes/pageRoutes/ArticlePageRoute.tsx</text>
</g>
<!-- components/App/Routes/pageRoutes/index.ts&#45;&gt;components/App/Routes/pageRoutes/ArticlePageRoute.tsx -->
<g id="edge27" class="edge">
<title>components/App/Routes/pageRoutes/index.ts&#45;&gt;components/App/Routes/pageRoutes/ArticlePageRoute.tsx</title>
<path fill="none" stroke="#757575" d="M878.7171,-366.2321C907.447,-362.9823 938.973,-359.5729 968,-356.7713 995.7473,-354.0932 1025.2619,-351.4967 1053.8983,-349.1103"/>
<polygon fill="#757575" stroke="#757575" points="1054.3093,-352.5884 1063.9864,-348.2752 1053.7317,-345.6122 1054.3093,-352.5884"/>
</g>
<!-- components/App/Routes/pageRoutes/FatalErrorPageRoute.tsx -->
<g id="node14" class="node">
<title>components/App/Routes/pageRoutes/FatalErrorPageRoute.tsx</title>
<path fill="none" stroke="#c6c5fe" d="M1412.3333,-307.2713C1412.3333,-307.2713 1020.6667,-307.2713 1020.6667,-307.2713 1016.8333,-307.2713 1013,-303.4379 1013,-299.6046 1013,-299.6046 1013,-291.9379 1013,-291.9379 1013,-288.1046 1016.8333,-284.2713 1020.6667,-284.2713 1020.6667,-284.2713 1412.3333,-284.2713 1412.3333,-284.2713 1416.1667,-284.2713 1420,-288.1046 1420,-291.9379 1420,-291.9379 1420,-299.6046 1420,-299.6046 1420,-303.4379 1416.1667,-307.2713 1412.3333,-307.2713"/>
<text text-anchor="middle" x="1216.5" y="-292.0713" font-family="Arial" font-size="14.00" fill="#c6c5fe">components/App/Routes/pageRoutes/FatalErrorPageRoute.tsx</text>
</g>
<!-- components/App/Routes/pageRoutes/index.ts&#45;&gt;components/App/Routes/pageRoutes/FatalErrorPageRoute.tsx -->
<g id="edge28" class="edge">
<title>components/App/Routes/pageRoutes/index.ts&#45;&gt;components/App/Routes/pageRoutes/FatalErrorPageRoute.tsx</title>
<path fill="none" stroke="#757575" d="M809.3595,-366.1551C845.3203,-351.7134 910.1551,-327.5348 968,-315.7713 981.2253,-313.0817 994.9156,-310.7506 1008.7613,-308.7306"/>
<polygon fill="#757575" stroke="#757575" points="1009.4491,-312.1685 1018.8663,-307.314 1008.4772,-305.2363 1009.4491,-312.1685"/>
</g>
<!-- components/App/Routes/pageRoutes/HomePageRoute.tsx -->
<g id="node15" class="node">
<title>components/App/Routes/pageRoutes/HomePageRoute.tsx</title>
<path fill="none" stroke="#c6c5fe" d="M1399.8333,-266.2713C1399.8333,-266.2713 1033.1667,-266.2713 1033.1667,-266.2713 1029.3333,-266.2713 1025.5,-262.4379 1025.5,-258.6046 1025.5,-258.6046 1025.5,-250.9379 1025.5,-250.9379 1025.5,-247.1046 1029.3333,-243.2713 1033.1667,-243.2713 1033.1667,-243.2713 1399.8333,-243.2713 1399.8333,-243.2713 1403.6667,-243.2713 1407.5,-247.1046 1407.5,-250.9379 1407.5,-250.9379 1407.5,-258.6046 1407.5,-258.6046 1407.5,-262.4379 1403.6667,-266.2713 1399.8333,-266.2713"/>
<text text-anchor="middle" x="1216.5" y="-251.0713" font-family="Arial" font-size="14.00" fill="#c6c5fe">components/App/Routes/pageRoutes/HomePageRoute.tsx</text>
</g>
<!-- components/App/Routes/pageRoutes/index.ts&#45;&gt;components/App/Routes/pageRoutes/HomePageRoute.tsx -->
<g id="edge29" class="edge">
<title>components/App/Routes/pageRoutes/index.ts&#45;&gt;components/App/Routes/pageRoutes/HomePageRoute.tsx</title>
<path fill="none" stroke="#757575" d="M796.9281,-366.2135C827.6152,-343.9426 899.2896,-295.4588 968,-274.7713 983.187,-270.1987 999.1179,-266.5254 1015.2686,-263.5876"/>
<polygon fill="#757575" stroke="#757575" points="1016.0873,-266.9982 1025.3484,-261.852 1014.8995,-260.0997 1016.0873,-266.9982"/>
</g>
<!-- components/App/Routes/pageRoutes/LoginPageRoute.tsx -->
<g id="node16" class="node">
<title>components/App/Routes/pageRoutes/LoginPageRoute.tsx</title>
<path fill="none" stroke="#c6c5fe" d="M1398.3333,-225.2713C1398.3333,-225.2713 1034.6667,-225.2713 1034.6667,-225.2713 1030.8333,-225.2713 1027,-221.4379 1027,-217.6046 1027,-217.6046 1027,-209.9379 1027,-209.9379 1027,-206.1046 1030.8333,-202.2713 1034.6667,-202.2713 1034.6667,-202.2713 1398.3333,-202.2713 1398.3333,-202.2713 1402.1667,-202.2713 1406,-206.1046 1406,-209.9379 1406,-209.9379 1406,-217.6046 1406,-217.6046 1406,-221.4379 1402.1667,-225.2713 1398.3333,-225.2713"/>
<text text-anchor="middle" x="1216.5" y="-210.0713" font-family="Arial" font-size="14.00" fill="#c6c5fe">components/App/Routes/pageRoutes/LoginPageRoute.tsx</text>
</g>
<!-- components/App/Routes/pageRoutes/index.ts&#45;&gt;components/App/Routes/pageRoutes/LoginPageRoute.tsx -->
<g id="edge30" class="edge">
<title>components/App/Routes/pageRoutes/index.ts&#45;&gt;components/App/Routes/pageRoutes/LoginPageRoute.tsx</title>
<path fill="none" stroke="#757575" d="M791.8243,-366.0855C817.95,-337.4375 890.1645,-263.8631 968,-233.7713 983.5235,-227.7698 999.9902,-223.1199 1016.7666,-219.5512"/>
<polygon fill="#757575" stroke="#757575" points="1017.5541,-222.9631 1026.6753,-217.5728 1016.1835,-216.0986 1017.5541,-222.9631"/>
</g>
<!-- components/App/Routes/pageRoutes/NotFoundPageRoute.tsx -->
<g id="node17" class="node">
<title>components/App/Routes/pageRoutes/NotFoundPageRoute.tsx</title>
<path fill="none" stroke="#c6c5fe" d="M1411.8333,-184.2713C1411.8333,-184.2713 1021.1667,-184.2713 1021.1667,-184.2713 1017.3333,-184.2713 1013.5,-180.4379 1013.5,-176.6046 1013.5,-176.6046 1013.5,-168.9379 1013.5,-168.9379 1013.5,-165.1046 1017.3333,-161.2713 1021.1667,-161.2713 1021.1667,-161.2713 1411.8333,-161.2713 1411.8333,-161.2713 1415.6667,-161.2713 1419.5,-165.1046 1419.5,-168.9379 1419.5,-168.9379 1419.5,-176.6046 1419.5,-176.6046 1419.5,-180.4379 1415.6667,-184.2713 1411.8333,-184.2713"/>
<text text-anchor="middle" x="1216.5" y="-169.0713" font-family="Arial" font-size="14.00" fill="#c6c5fe">components/App/Routes/pageRoutes/NotFoundPageRoute.tsx</text>
</g>
<!-- components/App/Routes/pageRoutes/index.ts&#45;&gt;components/App/Routes/pageRoutes/NotFoundPageRoute.tsx -->
<g id="edge31" class="edge">
<title>components/App/Routes/pageRoutes/index.ts&#45;&gt;components/App/Routes/pageRoutes/NotFoundPageRoute.tsx</title>
<path fill="none" stroke="#757575" d="M788.9718,-365.8726C811.2285,-331.6343 880.9788,-232.769 968,-192.7713 979.3264,-187.5653 991.2495,-183.2776 1003.4917,-179.7673"/>
<polygon fill="#757575" stroke="#757575" points="1004.6215,-183.0881 1013.3729,-177.1162 1002.8075,-176.3272 1004.6215,-183.0881"/>
</g>
<!-- components/App/Routes/pageRoutes/ProfilePageRoute.tsx -->
<g id="node18" class="node">
<title>components/App/Routes/pageRoutes/ProfilePageRoute.tsx</title>
<path fill="none" stroke="#c6c5fe" d="M1401.3333,-143.2713C1401.3333,-143.2713 1031.6667,-143.2713 1031.6667,-143.2713 1027.8333,-143.2713 1024,-139.4379 1024,-135.6046 1024,-135.6046 1024,-127.9379 1024,-127.9379 1024,-124.1046 1027.8333,-120.2713 1031.6667,-120.2713 1031.6667,-120.2713 1401.3333,-120.2713 1401.3333,-120.2713 1405.1667,-120.2713 1409,-124.1046 1409,-127.9379 1409,-127.9379 1409,-135.6046 1409,-135.6046 1409,-139.4379 1405.1667,-143.2713 1401.3333,-143.2713"/>
<text text-anchor="middle" x="1216.5" y="-128.0713" font-family="Arial" font-size="14.00" fill="#c6c5fe">components/App/Routes/pageRoutes/ProfilePageRoute.tsx</text>
</g>
<!-- components/App/Routes/pageRoutes/index.ts&#45;&gt;components/App/Routes/pageRoutes/ProfilePageRoute.tsx -->
<g id="edge32" class="edge">
<title>components/App/Routes/pageRoutes/index.ts&#45;&gt;components/App/Routes/pageRoutes/ProfilePageRoute.tsx</title>
<path fill="none" stroke="#757575" d="M786.8561,-366.1282C805.3897,-327.3734 871.0171,-202.334 968,-151.7713 982.3816,-144.2733 997.8775,-138.5418 1013.8531,-134.2204"/>
<polygon fill="#757575" stroke="#757575" points="1015.0099,-137.5387 1023.8565,-131.7088 1013.3052,-130.7494 1015.0099,-137.5387"/>
</g>
<!-- components/App/Routes/pageRoutes/SearchResultArticlesListPageRoute.tsx -->
<g id="node19" class="node">
<title>components/App/Routes/pageRoutes/SearchResultArticlesListPageRoute.tsx</title>
<path fill="none" stroke="#c6c5fe" d="M1457.3333,-102.2713C1457.3333,-102.2713 975.6667,-102.2713 975.6667,-102.2713 971.8333,-102.2713 968,-98.4379 968,-94.6046 968,-94.6046 968,-86.9379 968,-86.9379 968,-83.1046 971.8333,-79.2713 975.6667,-79.2713 975.6667,-79.2713 1457.3333,-79.2713 1457.3333,-79.2713 1461.1667,-79.2713 1465,-83.1046 1465,-86.9379 1465,-86.9379 1465,-94.6046 1465,-94.6046 1465,-98.4379 1461.1667,-102.2713 1457.3333,-102.2713"/>
<text text-anchor="middle" x="1216.5" y="-87.0713" font-family="Arial" font-size="14.00" fill="#c6c5fe">components/App/Routes/pageRoutes/SearchResultArticlesListPageRoute.tsx</text>
</g>
<!-- components/App/Routes/pageRoutes/index.ts&#45;&gt;components/App/Routes/pageRoutes/SearchResultArticlesListPageRoute.tsx -->
<g id="edge33" class="edge">
<title>components/App/Routes/pageRoutes/index.ts&#45;&gt;components/App/Routes/pageRoutes/SearchResultArticlesListPageRoute.tsx</title>
<path fill="none" stroke="#757575" d="M785.4341,-366.2186C800.7385,-323.2842 860.8272,-172.233 968,-110.7713 970.4244,-109.3809 972.8845,-108.048 975.3771,-106.7705"/>
<polygon fill="#757575" stroke="#757575" points="977.0304,-109.8595 984.5379,-102.3836 974.007,-103.546 977.0304,-109.8595"/>
</g>
<!-- components/App/Routes/pageRoutes/AboutPageRoute.tsx&#45;&gt;components/App/Routes/routeConfig.ts -->
<g id="edge6" class="edge">
<title>components/App/Routes/pageRoutes/AboutPageRoute.tsx&#45;&gt;components/App/Routes/routeConfig.ts</title>
<path fill="none" stroke="#757575" d="M1303.2008,-635.28C1353.8494,-637.7076 1417.0289,-632.9691 1465,-603.7713 1560.191,-545.8328 1609.3976,-410.698 1625.4625,-358.1806"/>
<polygon fill="#757575" stroke="#757575" points="1628.9092,-358.8676 1628.3922,-348.2854 1622.1972,-356.8804 1628.9092,-358.8676"/>
</g>
<!-- components/App/Routes/pageRoutes/AdminArticleCreatePageRoute.tsx&#45;&gt;components/App/Routes/routeConfig.ts -->
<g id="edge7" class="edge">
<title>components/App/Routes/pageRoutes/AdminArticleCreatePageRoute.tsx&#45;&gt;components/App/Routes/routeConfig.ts</title>
<path fill="none" stroke="#757575" d="M1447.7599,-571.2376C1453.6625,-568.6914 1459.4224,-565.8771 1465,-562.7713 1550.1068,-515.3806 1603.8166,-404.2166 1623.2743,-357.7578"/>
<polygon fill="#757575" stroke="#757575" points="1626.5623,-358.9638 1627.1001,-348.3826 1620.0812,-356.319 1626.5623,-358.9638"/>
</g>
<!-- components/App/Routes/pageRoutes/AdminArticleEditorPageRoute.tsx&#45;&gt;components/App/Routes/routeConfig.ts -->
<g id="edge8" class="edge">
<title>components/App/Routes/pageRoutes/AdminArticleEditorPageRoute.tsx&#45;&gt;components/App/Routes/routeConfig.ts</title>
<path fill="none" stroke="#757575" d="M1445.5337,-530.2044C1452.1894,-527.6902 1458.6951,-524.8883 1465,-521.7713 1540.1478,-484.6193 1597.0188,-397.5309 1620.1568,-357.5289"/>
<polygon fill="#757575" stroke="#757575" points="1623.3032,-359.0756 1625.1835,-348.6489 1617.2114,-355.6272 1623.3032,-359.0756"/>
</g>
<!-- components/App/Routes/pageRoutes/AdminArticleTagEditorPageRoute.tsx&#45;&gt;components/App/Routes/routeConfig.ts -->
<g id="edge9" class="edge">
<title>components/App/Routes/pageRoutes/AdminArticleTagEditorPageRoute.tsx&#45;&gt;components/App/Routes/routeConfig.ts</title>
<path fill="none" stroke="#757575" d="M1438.4259,-489.2501C1447.5196,-486.5127 1456.4152,-483.3702 1465,-479.7713 1530.8072,-452.1839 1589.4321,-388.4377 1616.1689,-356.1955"/>
<polygon fill="#757575" stroke="#757575" points="1618.9535,-358.3188 1622.5551,-348.3549 1613.526,-353.8981 1618.9535,-358.3188"/>
</g>
<!-- components/App/Routes/pageRoutes/AdminArticlesPageRoute.tsx&#45;&gt;components/App/Routes/routeConfig.ts -->
<g id="edge10" class="edge">
<title>components/App/Routes/pageRoutes/AdminArticlesPageRoute.tsx&#45;&gt;components/App/Routes/routeConfig.ts</title>
<path fill="none" stroke="#757575" d="M1430.2999,-448.243C1442.1501,-445.5811 1453.7896,-442.4487 1465,-438.7713 1521.5809,-420.2107 1578.9069,-379.0967 1609.3154,-355.1193"/>
<polygon fill="#757575" stroke="#757575" points="1611.8902,-357.5413 1617.507,-348.5578 1607.514,-352.0778 1611.8902,-357.5413"/>
</g>
<!-- components/App/Routes/pageRoutes/AdminHomePageRoute.tsx&#45;&gt;components/App/Routes/routeConfig.ts -->
<g id="edge11" class="edge">
<title>components/App/Routes/pageRoutes/AdminHomePageRoute.tsx&#45;&gt;components/App/Routes/routeConfig.ts</title>
<path fill="none" stroke="#757575" d="M1411.9126,-407.2346C1429.9559,-404.6743 1447.8791,-401.5593 1465,-397.7713 1512.192,-387.33 1564.1239,-366.7522 1597.2318,-352.3984"/>
<polygon fill="#757575" stroke="#757575" points="1598.714,-355.5702 1606.4633,-348.3453 1595.8999,-349.1607 1598.714,-355.5702"/>
</g>
<!-- components/App/Routes/pageRoutes/ArticleListPageRoute.tsx&#45;&gt;components/App/Routes/routeConfig.ts -->
<g id="edge12" class="edge">
<title>components/App/Routes/pageRoutes/ArticleListPageRoute.tsx&#45;&gt;components/App/Routes/routeConfig.ts</title>
<path fill="none" stroke="#757575" d="M1363.0922,-366.247C1396.6027,-363.3726 1432.0504,-360.1414 1465,-356.7713 1486.1277,-354.6103 1508.7339,-352.0569 1530.2606,-349.5103"/>
<polygon fill="#757575" stroke="#757575" points="1530.8812,-352.9611 1540.3968,-348.3024 1530.0529,-346.0103 1530.8812,-352.9611"/>
</g>
<!-- components/App/Routes/pageRoutes/ArticlePageRoute.tsx&#45;&gt;components/App/Routes/routeConfig.ts -->
<g id="edge13" class="edge">
<title>components/App/Routes/pageRoutes/ArticlePageRoute.tsx&#45;&gt;components/App/Routes/routeConfig.ts</title>
<path fill="none" stroke="#757575" d="M1408.5111,-336.7713C1436.2651,-336.7713 1464.3908,-336.7713 1490.8871,-336.7713"/>
<polygon fill="#757575" stroke="#757575" points="1490.9581,-340.2714 1500.9581,-336.7713 1490.958,-333.2714 1490.9581,-340.2714"/>
</g>
<!-- components/App/Routes/pageRoutes/FatalErrorPageRoute.tsx&#45;&gt;components/App/Routes/routeConfig.ts -->
<g id="edge14" class="edge">
<title>components/App/Routes/pageRoutes/FatalErrorPageRoute.tsx&#45;&gt;components/App/Routes/routeConfig.ts</title>
<path fill="none" stroke="#757575" d="M1373.0203,-307.2858C1403.5478,-309.8373 1435.2934,-312.704 1465,-315.7713 1487.9733,-318.1433 1512.6835,-321.0598 1535.8524,-323.9562"/>
<polygon fill="#757575" stroke="#757575" points="1535.6669,-327.4605 1546.0262,-325.2389 1536.5426,-320.5155 1535.6669,-327.4605"/>
</g>
<!-- components/App/Routes/pageRoutes/HomePageRoute.tsx&#45;&gt;components/App/Routes/routeConfig.ts -->
<g id="edge15" class="edge">
<title>components/App/Routes/pageRoutes/HomePageRoute.tsx&#45;&gt;components/App/Routes/routeConfig.ts</title>
<path fill="none" stroke="#757575" d="M1407.5849,-264.7581C1427.0886,-267.3843 1446.5139,-270.6687 1465,-274.7713 1512.5515,-285.3242 1564.792,-306.4489 1597.8435,-321.0878"/>
<polygon fill="#757575" stroke="#757575" points="1596.4908,-324.3169 1607.0474,-325.2169 1599.3561,-317.9302 1596.4908,-324.3169"/>
</g>
<!-- components/App/Routes/pageRoutes/LoginPageRoute.tsx&#45;&gt;components/App/Routes/routeConfig.ts -->
<g id="edge16" class="edge">
<title>components/App/Routes/pageRoutes/LoginPageRoute.tsx&#45;&gt;components/App/Routes/routeConfig.ts</title>
<path fill="none" stroke="#757575" d="M1406.2876,-219.6431C1426.379,-223.0394 1446.2889,-227.6297 1465,-233.7713 1522.0234,-252.4882 1579.5937,-294.3856 1609.829,-318.5829"/>
<polygon fill="#757575" stroke="#757575" points="1607.99,-321.5986 1617.9569,-325.1919 1612.4062,-316.1674 1607.99,-321.5986"/>
</g>
<!-- components/App/Routes/pageRoutes/NotFoundPageRoute.tsx&#45;&gt;components/App/Routes/routeConfig.ts -->
<g id="edge17" class="edge">
<title>components/App/Routes/pageRoutes/NotFoundPageRoute.tsx&#45;&gt;components/App/Routes/routeConfig.ts</title>
<path fill="none" stroke="#757575" d="M1419.7984,-178.358C1435.3848,-182.0287 1450.6285,-186.7512 1465,-192.7713 1531.0106,-220.4225 1589.5413,-284.6743 1616.2129,-317.1833"/>
<polygon fill="#757575" stroke="#757575" points="1613.5831,-319.498 1622.5825,-325.0892 1619.0341,-315.1063 1613.5831,-319.498"/>
</g>
<!-- components/App/Routes/pageRoutes/ProfilePageRoute.tsx&#45;&gt;components/App/Routes/routeConfig.ts -->
<g id="edge18" class="edge">
<title>components/App/Routes/pageRoutes/ProfilePageRoute.tsx&#45;&gt;components/App/Routes/routeConfig.ts</title>
<path fill="none" stroke="#757575" d="M1409.0813,-132.5429C1428.5404,-136.9243 1447.5403,-143.1395 1465,-151.7713 1540.1478,-188.9232 1597.0188,-276.0116 1620.1568,-316.0136"/>
<polygon fill="#757575" stroke="#757575" points="1617.2114,-317.9153 1625.1835,-324.8936 1623.3032,-314.467 1617.2114,-317.9153"/>
</g>
<!-- components/App/Routes/pageRoutes/SearchResultArticlesListPageRoute.tsx&#45;&gt;components/App/Routes/routeConfig.ts -->
<g id="edge19" class="edge">
<title>components/App/Routes/pageRoutes/SearchResultArticlesListPageRoute.tsx&#45;&gt;components/App/Routes/routeConfig.ts</title>
<path fill="none" stroke="#757575" d="M1447.7599,-102.305C1453.6625,-104.8511 1459.4224,-107.6654 1465,-110.7713 1550.1068,-158.1619 1603.8166,-269.3259 1623.2743,-315.7847"/>
<polygon fill="#757575" stroke="#757575" points="1620.0812,-317.2235 1627.1001,-325.1599 1626.5623,-314.5787 1620.0812,-317.2235"/>
</g>
<!-- components/App/WithAuth.tsx -->
<g id="node20" class="node">
<title>components/App/WithAuth.tsx</title>
<path fill="none" stroke="#cfffac" d="M554.3333,-420.2713C554.3333,-420.2713 365.6667,-420.2713 365.6667,-420.2713 361.8333,-420.2713 358,-416.4379 358,-412.6046 358,-412.6046 358,-404.9379 358,-404.9379 358,-401.1046 361.8333,-397.2713 365.6667,-397.2713 365.6667,-397.2713 554.3333,-397.2713 554.3333,-397.2713 558.1667,-397.2713 562,-401.1046 562,-404.9379 562,-404.9379 562,-412.6046 562,-412.6046 562,-416.4379 558.1667,-420.2713 554.3333,-420.2713"/>
<text text-anchor="middle" x="460" y="-405.0713" font-family="Arial" font-size="14.00" fill="#cfffac">components/App/WithAuth.tsx</text>
</g>
<!-- components/App/WithEmotionTheme.tsx -->
<g id="node21" class="node">
<title>components/App/WithEmotionTheme.tsx</title>
<path fill="none" stroke="#cfffac" d="M587.3333,-379.2713C587.3333,-379.2713 332.6667,-379.2713 332.6667,-379.2713 328.8333,-379.2713 325,-375.4379 325,-371.6046 325,-371.6046 325,-363.9379 325,-363.9379 325,-360.1046 328.8333,-356.2713 332.6667,-356.2713 332.6667,-356.2713 587.3333,-356.2713 587.3333,-356.2713 591.1667,-356.2713 595,-360.1046 595,-363.9379 595,-363.9379 595,-371.6046 595,-371.6046 595,-375.4379 591.1667,-379.2713 587.3333,-379.2713"/>
<text text-anchor="middle" x="460" y="-364.0713" font-family="Arial" font-size="14.00" fill="#cfffac">components/App/WithEmotionTheme.tsx</text>
</g>
<!-- components/App/WithErrorBoundary.tsx -->
<g id="node22" class="node">
<title>components/App/WithErrorBoundary.tsx</title>
<path fill="none" stroke="#cfffac" d="M585.3333,-338.2713C585.3333,-338.2713 334.6667,-338.2713 334.6667,-338.2713 330.8333,-338.2713 327,-334.4379 327,-330.6046 327,-330.6046 327,-322.9379 327,-322.9379 327,-319.1046 330.8333,-315.2713 334.6667,-315.2713 334.6667,-315.2713 585.3333,-315.2713 585.3333,-315.2713 589.1667,-315.2713 593,-319.1046 593,-322.9379 593,-322.9379 593,-330.6046 593,-330.6046 593,-334.4379 589.1667,-338.2713 585.3333,-338.2713"/>
<text text-anchor="middle" x="460" y="-323.0713" font-family="Arial" font-size="14.00" fill="#cfffac">components/App/WithErrorBoundary.tsx</text>
</g>
<!-- components/App/WithGlobalStyle.tsx -->
<g id="node23" class="node">
<title>components/App/WithGlobalStyle.tsx</title>
<path fill="none" stroke="#cfffac" d="M575.8333,-297.2713C575.8333,-297.2713 344.1667,-297.2713 344.1667,-297.2713 340.3333,-297.2713 336.5,-293.4379 336.5,-289.6046 336.5,-289.6046 336.5,-281.9379 336.5,-281.9379 336.5,-278.1046 340.3333,-274.2713 344.1667,-274.2713 344.1667,-274.2713 575.8333,-274.2713 575.8333,-274.2713 579.6667,-274.2713 583.5,-278.1046 583.5,-281.9379 583.5,-281.9379 583.5,-289.6046 583.5,-289.6046 583.5,-293.4379 579.6667,-297.2713 575.8333,-297.2713"/>
<text text-anchor="middle" x="460" y="-282.0713" font-family="Arial" font-size="14.00" fill="#cfffac">components/App/WithGlobalStyle.tsx</text>
</g>
<!-- components/App/WithIntl.tsx -->
<g id="node24" class="node">
<title>components/App/WithIntl.tsx</title>
<path fill="none" stroke="#cfffac" d="M549.3333,-256.2713C549.3333,-256.2713 370.6667,-256.2713 370.6667,-256.2713 366.8333,-256.2713 363,-252.4379 363,-248.6046 363,-248.6046 363,-240.9379 363,-240.9379 363,-237.1046 366.8333,-233.2713 370.6667,-233.2713 370.6667,-233.2713 549.3333,-233.2713 549.3333,-233.2713 553.1667,-233.2713 557,-237.1046 557,-240.9379 557,-240.9379 557,-248.6046 557,-248.6046 557,-252.4379 553.1667,-256.2713 549.3333,-256.2713"/>
<text text-anchor="middle" x="460" y="-241.0713" font-family="Arial" font-size="14.00" fill="#cfffac">components/App/WithIntl.tsx</text>
</g>
<!-- components/App/WithRecoil.tsx -->
<g id="node25" class="node">
<title>components/App/WithRecoil.tsx</title>
<path fill="none" stroke="#cfffac" d="M559.3333,-215.2713C559.3333,-215.2713 360.6667,-215.2713 360.6667,-215.2713 356.8333,-215.2713 353,-211.4379 353,-207.6046 353,-207.6046 353,-199.9379 353,-199.9379 353,-196.1046 356.8333,-192.2713 360.6667,-192.2713 360.6667,-192.2713 559.3333,-192.2713 559.3333,-192.2713 563.1667,-192.2713 567,-196.1046 567,-199.9379 567,-199.9379 567,-207.6046 567,-207.6046 567,-211.4379 563.1667,-215.2713 559.3333,-215.2713"/>
<text text-anchor="middle" x="460" y="-200.0713" font-family="Arial" font-size="14.00" fill="#cfffac">components/App/WithRecoil.tsx</text>
</g>
<!-- components/App/WithScrollToTop.tsx -->
<g id="node26" class="node">
<title>components/App/WithScrollToTop.tsx</title>
<path fill="none" stroke="#cfffac" d="M577.8333,-174.2713C577.8333,-174.2713 342.1667,-174.2713 342.1667,-174.2713 338.3333,-174.2713 334.5,-170.4379 334.5,-166.6046 334.5,-166.6046 334.5,-158.9379 334.5,-158.9379 334.5,-155.1046 338.3333,-151.2713 342.1667,-151.2713 342.1667,-151.2713 577.8333,-151.2713 577.8333,-151.2713 581.6667,-151.2713 585.5,-155.1046 585.5,-158.9379 585.5,-158.9379 585.5,-166.6046 585.5,-166.6046 585.5,-170.4379 581.6667,-174.2713 577.8333,-174.2713"/>
<text text-anchor="middle" x="460" y="-159.0713" font-family="Arial" font-size="14.00" fill="#cfffac">components/App/WithScrollToTop.tsx</text>
</g>
<!-- components/App/WithSentry.tsx -->
<g id="node27" class="node">
<title>components/App/WithSentry.tsx</title>
<path fill="none" stroke="#cfffac" d="M560.3333,-133.2713C560.3333,-133.2713 359.6667,-133.2713 359.6667,-133.2713 355.8333,-133.2713 352,-129.4379 352,-125.6046 352,-125.6046 352,-117.9379 352,-117.9379 352,-114.1046 355.8333,-110.2713 359.6667,-110.2713 359.6667,-110.2713 560.3333,-110.2713 560.3333,-110.2713 564.1667,-110.2713 568,-114.1046 568,-117.9379 568,-117.9379 568,-125.6046 568,-125.6046 568,-129.4379 564.1667,-133.2713 560.3333,-133.2713"/>
<text text-anchor="middle" x="460" y="-118.0713" font-family="Arial" font-size="14.00" fill="#cfffac">components/App/WithSentry.tsx</text>
</g>
<!-- components/App/index.tsx -->
<g id="node28" class="node">
<title>components/App/index.tsx</title>
<path fill="none" stroke="#c6c5fe" d="M281.3333,-297.2713C281.3333,-297.2713 115.6667,-297.2713 115.6667,-297.2713 111.8333,-297.2713 108,-293.4379 108,-289.6046 108,-289.6046 108,-281.9379 108,-281.9379 108,-278.1046 111.8333,-274.2713 115.6667,-274.2713 115.6667,-274.2713 281.3333,-274.2713 281.3333,-274.2713 285.1667,-274.2713 289,-278.1046 289,-281.9379 289,-281.9379 289,-289.6046 289,-289.6046 289,-293.4379 285.1667,-297.2713 281.3333,-297.2713"/>
<text text-anchor="middle" x="198.5" y="-282.0713" font-family="Arial" font-size="14.00" fill="#c6c5fe">components/App/index.tsx</text>
</g>
<!-- components/App/index.tsx&#45;&gt;components/App/Routes/index.tsx -->
<g id="edge34" class="edge">
<title>components/App/index.tsx&#45;&gt;components/App/Routes/index.tsx</title>
<path fill="none" stroke="#757575" d="M204.9299,-297.4698C221.0124,-325.4851 265.9643,-396.4867 325,-428.7713 328.8045,-430.8518 332.754,-432.7423 336.8085,-434.4592"/>
<polygon fill="#757575" stroke="#757575" points="335.8506,-437.8405 346.4406,-438.1583 338.3602,-431.3058 335.8506,-437.8405"/>
</g>
<!-- components/App/index.tsx&#45;&gt;components/App/WithAuth.tsx -->
<g id="edge35" class="edge">
<title>components/App/index.tsx&#45;&gt;components/App/WithAuth.tsx</title>
<path fill="none" stroke="#757575" d="M208.9774,-297.6004C229.0752,-319.4406 275.463,-365.8599 325,-387.7713 332.3253,-391.0114 340.0671,-393.7622 347.9881,-396.0962"/>
<polygon fill="#757575" stroke="#757575" points="347.155,-399.4967 357.7229,-398.7415 348.9907,-392.7416 347.155,-399.4967"/>
</g>
<!-- components/App/index.tsx&#45;&gt;components/App/WithEmotionTheme.tsx -->
<g id="edge36" class="edge">
<title>components/App/index.tsx&#45;&gt;components/App/WithEmotionTheme.tsx</title>
<path fill="none" stroke="#757575" d="M217.9109,-297.3813C242.1227,-311.3241 285.1916,-334.3777 325,-346.7713 333.9925,-349.5709 343.4433,-352.0073 352.9937,-354.1257"/>
<polygon fill="#757575" stroke="#757575" points="352.4615,-357.5902 362.9674,-356.2202 353.9002,-350.7396 352.4615,-357.5902"/>
</g>
<!-- components/App/index.tsx&#45;&gt;components/App/WithErrorBoundary.tsx -->
<g id="edge37" class="edge">
<title>components/App/index.tsx&#45;&gt;components/App/WithErrorBoundary.tsx</title>
<path fill="none" stroke="#757575" d="M271.0754,-297.2774C288.7205,-300.066 307.5369,-303.0325 325,-305.7713 341.3005,-308.3277 358.7104,-311.0453 375.423,-313.6479"/>
<polygon fill="#757575" stroke="#757575" points="375.3034,-317.1713 385.7228,-315.251 376.3801,-310.2546 375.3034,-317.1713"/>
</g>
<!-- components/App/index.tsx&#45;&gt;components/App/WithGlobalStyle.tsx -->
<g id="edge38" class="edge">
<title>components/App/index.tsx&#45;&gt;components/App/WithGlobalStyle.tsx</title>
<path fill="none" stroke="#757575" d="M289.2261,-285.7713C301.2151,-285.7713 313.701,-285.7713 326.2239,-285.7713"/>
<polygon fill="#757575" stroke="#757575" points="326.2663,-289.2714 336.2662,-285.7713 326.2662,-282.2714 326.2663,-289.2714"/>
</g>
<!-- components/App/index.tsx&#45;&gt;components/App/WithIntl.tsx -->
<g id="edge39" class="edge">
<title>components/App/index.tsx&#45;&gt;components/App/WithIntl.tsx</title>
<path fill="none" stroke="#757575" d="M266.7419,-274.2188C285.6041,-271.0867 306.0862,-267.742 325,-264.7713 339.7844,-262.4491 355.4917,-260.0553 370.7664,-257.7666"/>
<polygon fill="#757575" stroke="#757575" points="371.3539,-261.2178 380.7275,-256.2796 370.3203,-254.2945 371.3539,-261.2178"/>
</g>
<!-- components/App/index.tsx&#45;&gt;components/App/WithRecoil.tsx -->
<g id="edge40" class="edge">
<title>components/App/index.tsx&#45;&gt;components/App/WithRecoil.tsx</title>
<path fill="none" stroke="#757575" d="M217.4461,-274.1596C241.5336,-259.9542 284.8289,-236.2591 325,-223.7713 332.6405,-221.3961 340.6143,-219.2996 348.7006,-217.4495"/>
<polygon fill="#757575" stroke="#757575" points="349.568,-220.8429 358.605,-215.3128 348.0918,-214.0003 349.568,-220.8429"/>
</g>
<!-- components/App/index.tsx&#45;&gt;components/App/WithScrollToTop.tsx -->
<g id="edge41" class="edge">
<title>components/App/index.tsx&#45;&gt;components/App/WithScrollToTop.tsx</title>
<path fill="none" stroke="#757575" d="M208.6255,-274.1338C228.4837,-252.1662 274.9848,-204.8204 325,-182.7713 329.5054,-180.7851 334.1689,-178.9895 338.9352,-177.3668"/>
<polygon fill="#757575" stroke="#757575" points="340.3427,-180.5941 348.8453,-174.273 338.2566,-173.9121 340.3427,-180.5941"/>
</g>
<!-- components/App/index.tsx&#45;&gt;components/App/WithSentry.tsx -->
<g id="edge42" class="edge">
<title>components/App/index.tsx&#45;&gt;components/App/WithSentry.tsx</title>
<path fill="none" stroke="#757575" d="M204.8922,-273.9638C220.891,-245.6923 265.6711,-174.0705 325,-141.7713 330.5307,-138.7603 336.3682,-136.1589 342.3891,-133.9146"/>
<polygon fill="#757575" stroke="#757575" points="343.6294,-137.19 351.9837,-130.6741 341.3895,-130.558 343.6294,-137.19"/>
</g>
<!-- index.tsx -->
<g id="node29" class="node">
<title>index.tsx</title>
<path fill="none" stroke="#c6c5fe" d="M64.3333,-297.2713C64.3333,-297.2713 7.6667,-297.2713 7.6667,-297.2713 3.8333,-297.2713 0,-293.4379 0,-289.6046 0,-289.6046 0,-281.9379 0,-281.9379 0,-278.1046 3.8333,-274.2713 7.6667,-274.2713 7.6667,-274.2713 64.3333,-274.2713 64.3333,-274.2713 68.1667,-274.2713 72,-278.1046 72,-281.9379 72,-281.9379 72,-289.6046 72,-289.6046 72,-293.4379 68.1667,-297.2713 64.3333,-297.2713"/>
<text text-anchor="middle" x="36" y="-282.0713" font-family="Arial" font-size="14.00" fill="#c6c5fe">index.tsx</text>
</g>
<!-- index.tsx&#45;&gt;components/App/index.tsx -->
<g id="edge43" class="edge">
<title>index.tsx&#45;&gt;components/App/index.tsx</title>
<path fill="none" stroke="#757575" d="M72.064,-285.7713C79.8767,-285.7713 88.5066,-285.7713 97.479,-285.7713"/>
<polygon fill="#757575" stroke="#757575" points="97.7294,-289.2714 107.7294,-285.7713 97.7294,-282.2714 97.7294,-289.2714"/>
</g>
</g>
</svg>
